<svg id="visual" viewBox="0 0 960 540" width="960" height="540" xmlns="http://www.w3.org/2000/svg" xmlns:xlink="http://www.w3.org/1999/xlink" version="1.1"><path d="M0 82L10.7 80.2C21.3 78.3 42.7 74.7 64 69.3C85.3 64 106.7 57 128 56.2C149.3 55.3 170.7 60.7 192 60.7C213.3 60.7 234.7 55.3 256 49.8C277.3 44.3 298.7 38.7 320 36.8C341.3 35 362.7 37 384 44.3C405.3 51.7 426.7 64.3 448 71.5C469.3 78.7 490.7 80.3 512 81.2C533.3 82 554.7 82 576 79.3C597.3 76.7 618.7 71.3 640 68.7C661.3 66 682.7 66 704 64.2C725.3 62.3 746.7 58.7 768 63.2C789.3 67.7 810.7 80.3 832 80.3C853.3 80.3 874.7 67.7 896 62.2C917.3 56.7 938.7 58.3 949.3 59.2L960 60L960 0L949.3 0C938.7 0 917.3 0 896 0C874.7 0 853.3 0 832 0C810.7 0 789.3 0 768 0C746.7 0 725.3 0 704 0C682.7 0 661.3 0 640 0C618.7 0 597.3 0 576 0C554.7 0 533.3 0 512 0C490.7 0 469.3 0 448 0C426.7 0 405.3 0 384 0C362.7 0 341.3 0 320 0C298.7 0 277.3 0 256 0C234.7 0 213.3 0 192 0C170.7 0 149.3 0 128 0C106.7 0 85.3 0 64 0C42.7 0 21.3 0 10.7 0L0 0Z" fill="#82a180"></path><path d="M0 158L10.7 177.7C21.3 197.3 42.7 236.7 64 260C85.3 283.3 106.7 290.7 128 289C149.3 287.3 170.7 276.7 192 263.2C213.3 249.7 234.7 233.3 256 215.3C277.3 197.3 298.7 177.7 320 177.7C341.3 177.7 362.7 197.3 384 210.8C405.3 224.3 426.7 231.7 448 225.3C469.3 219 490.7 199 512 192.7C533.3 186.3 554.7 193.7 576 198.2C597.3 202.7 618.7 204.3 640 216C661.3 227.7 682.7 249.3 704 261C725.3 272.7 746.7 274.3 768 268C789.3 261.7 810.7 247.3 832 230.3C853.3 213.3 874.7 193.7 896 191C917.3 188.3 938.7 202.7 949.3 209.8L960 217L960 58L949.3 57.2C938.7 56.3 917.3 54.7 896 60.2C874.7 65.7 853.3 78.3 832 78.3C810.7 78.3 789.3 65.7 768 61.2C746.7 56.7 725.3 60.3 704 62.2C682.7 64 661.3 64 640 66.7C618.7 69.3 597.3 74.7 576 77.3C554.7 80 533.3 80 512 79.2C490.7 78.3 469.3 76.7 448 69.5C426.7 62.3 405.3 49.7 384 42.3C362.7 35 341.3 33 320 34.8C298.7 36.7 277.3 42.3 256 47.8C234.7 53.3 213.3 58.7 192 58.7C170.7 58.7 149.3 53.3 128 54.2C106.7 55 85.3 62 64 67.3C42.7 72.7 21.3 76.3 10.7 78.2L0 80Z" fill="#6d916b"></path><path d="M0 249L10.7 262.5C21.3 276 42.7 303 64 321C85.3 339 106.7 348 128 348C149.3 348 170.7 339 192 332.8C213.3 326.7 234.7 323.3 256 305.3C277.3 287.3 298.7 254.7 320 247.3C341.3 240 362.7 258 384 277C405.3 296 426.7 316 448 313.3C469.3 310.7 490.7 285.3 512 278.2C533.3 271 554.7 282 576 287.5C597.3 293 618.7 293 640 297.5C661.3 302 682.7 311 704 324.5C725.3 338 746.7 356 768 348.7C789.3 341.3 810.7 308.7 832 294.2C853.3 279.7 874.7 283.3 896 281.7C917.3 280 938.7 273 949.3 269.5L960 266L960 215L949.3 207.8C938.7 200.7 917.3 186.3 896 189C874.7 191.7 853.3 211.3 832 228.3C810.7 245.3 789.3 259.7 768 266C746.7 272.3 725.3 270.7 704 259C682.7 247.3 661.3 225.7 640 214C618.7 202.3 597.3 200.7 576 196.2C554.7 191.7 533.3 184.3 512 190.7C490.7 197 469.3 217 448 223.3C426.7 229.7 405.3 222.3 384 208.8C362.7 195.3 341.3 175.7 320 175.7C298.7 175.7 277.3 195.3 256 213.3C234.7 231.3 213.3 247.7 192 261.2C170.7 274.7 149.3 285.3 128 287C106.7 288.7 85.3 281.3 64 258C42.7 234.7 21.3 195.3 10.7 175.7L0 156Z" fill="#588157"></path><path d="M0 487L10.7 482.5C21.3 478 42.7 469 64 468.2C85.3 467.3 106.7 474.7 128 469.3C149.3 464 170.7 446 192 439.7C213.3 433.3 234.7 438.7 256 437.7C277.3 436.7 298.7 429.3 320 426.7C341.3 424 362.7 426 384 434.2C405.3 442.3 426.7 456.7 448 464.7C469.3 472.7 490.7 474.3 512 468C533.3 461.7 554.7 447.3 576 449.2C597.3 451 618.7 469 640 465.3C661.3 461.7 682.7 436.3 704 433.7C725.3 431 746.7 451 768 454.7C789.3 458.3 810.7 445.7 832 444.7C853.3 443.7 874.7 454.3 896 456.2C917.3 458 938.7 451 949.3 447.5L960 444L960 264L949.3 267.5C938.7 271 917.3 278 896 279.7C874.7 281.3 853.3 277.7 832 292.2C810.7 306.7 789.3 339.3 768 346.7C746.7 354 725.3 336 704 322.5C682.7 309 661.3 300 640 295.5C618.7 291 597.3 291 576 285.5C554.7 280 533.3 269 512 276.2C490.7 283.3 469.3 308.7 448 311.3C426.7 314 405.3 294 384 275C362.7 256 341.3 238 320 245.3C298.7 252.7 277.3 285.3 256 303.3C234.7 321.3 213.3 324.7 192 330.8C170.7 337 149.3 346 128 346C106.7 346 85.3 337 64 319C42.7 301 21.3 274 10.7 260.5L0 247Z" fill="#4c6f4b"></path><path d="M0 541L10.7 541C21.3 541 42.7 541 64 541C85.3 541 106.7 541 128 541C149.3 541 170.7 541 192 541C213.3 541 234.7 541 256 541C277.3 541 298.7 541 320 541C341.3 541 362.7 541 384 541C405.3 541 426.7 541 448 541C469.3 541 490.7 541 512 541C533.3 541 554.7 541 576 541C597.3 541 618.7 541 640 541C661.3 541 682.7 541 704 541C725.3 541 746.7 541 768 541C789.3 541 810.7 541 832 541C853.3 541 874.7 541 896 541C917.3 541 938.7 541 949.3 541L960 541L960 442L949.3 445.5C938.7 449 917.3 456 896 454.2C874.7 452.3 853.3 441.7 832 442.7C810.7 443.7 789.3 456.3 768 452.7C746.7 449 725.3 429 704 431.7C682.7 434.3 661.3 459.7 640 463.3C618.7 467 597.3 449 576 447.2C554.7 445.3 533.3 459.7 512 466C490.7 472.3 469.3 470.7 448 462.7C426.7 454.7 405.3 440.3 384 432.2C362.7 424 341.3 422 320 424.7C298.7 427.3 277.3 434.7 256 435.7C234.7 436.7 213.3 431.3 192 437.7C170.7 444 149.3 462 128 467.3C106.7 472.7 85.3 465.3 64 466.2C42.7 467 21.3 476 10.7 480.5L0 485Z" fill="#405e40"></path></svg>